<svg id="Capa_1" data-name="Capa 1" xmlns="http://www.w3.org/2000/svg" viewBox="0 0 1037 420"><defs><style>.cls-1{fill:#606060;}</style></defs><path class="cls-1" d="M66.78,73.05H50.12v22H42.84V29.62H66.78q10.68,0,15.8,5.2t5.11,15.9Q87.69,73,66.78,73.05ZM50.12,66.61H66.68q13.53,0,13.53-15.89,0-7.57-3.22-11.12T66.68,36.05H50.12Z"/><path class="cls-1" d="M97.71,95.09V47.78h7v6.44A46,46,0,0,1,122,46.74v7.19a51.78,51.78,0,0,0-8.28,2.37,54,54,0,0,0-6.57,2.84l-2.37,1.23V95.09Z"/><path class="cls-1" d="M127.42,71.34q0-13,4.64-18.73t15.66-5.77q11,0,15.61,5.77t4.59,18.73q0,13-4.35,18.83T147.67,96q-11.53,0-15.89-5.87T127.42,71.34Zm7.29-.14q0,10.36,2.51,14.52t10.5,4.17q8,0,10.45-4.12t2.46-14.52q0-10.41-2.74-14.34T147.72,53q-7.42,0-10.22,3.92T134.71,71.2Z"/><path class="cls-1" d="M174.07,47.78h7.1L193,88.94h3.13L208,47.78h7.09L195.45,116.1h-7.09l6.15-21h-7Z"/><path class="cls-1" d="M255.53,89.22l2.75-.28.19,5.58A135.8,135.8,0,0,1,240,96q-10.22,0-14.48-5.92t-4.26-18.4q0-24.88,19.78-24.88,9.56,0,14.29,5.34T260.08,69l-.38,5.39H228.47q0,7.86,2.84,11.64t9.89,3.78Q248.25,89.79,255.53,89.22ZM253,68.69q0-8.7-2.79-12.3t-9.08-3.59q-6.3,0-9.47,3.78t-3.26,12.11Z"/><path class="cls-1" d="M288.84,46.84A81.08,81.08,0,0,1,299.44,48l2.27.29L301.42,54a110.14,110.14,0,0,0-11.16-.85q-8,0-10.93,3.83T276.44,71.2q0,10.36,2.7,14.43t11.21,4.07l11.17-.85.28,5.86A97.93,97.93,0,0,1,288.65,96q-11.07,0-15.28-5.68T269.16,71.2q0-13.48,4.54-18.92T288.84,46.84Z"/><path class="cls-1" d="M336.9,53.93h-15V76.55q0,8.13,1.18,10.69t5.63,2.55l8.42-.57.48,5.87a65.34,65.34,0,0,1-9.66,1q-7.38,0-10.21-3.59t-2.84-13.72V53.93h-6.72V47.78h6.72V33.31h7V47.78h15Z"/><path class="cls-1" d="M343.53,71.34q0-13,4.63-18.73t15.66-5.77q11,0,15.61,5.77T384,71.34q0,13-4.35,18.83T363.77,96q-11.53,0-15.89-5.87T343.53,71.34Zm7.28-.14q0,10.36,2.51,14.52t10.5,4.17q8,0,10.46-4.12t2.46-14.52q0-10.41-2.75-14.34T363.82,53q-7.43,0-10.22,3.92T350.81,71.2Z"/><path class="cls-1" d="M416.38,95.09V47.78h7v6.44a46,46,0,0,1,17.32-7.48v7.19a51.78,51.78,0,0,0-8.28,2.37,54.29,54.29,0,0,0-6.58,2.84l-2.36,1.23V95.09Z"/><path class="cls-1" d="M480.34,89.22l2.74-.28.19,5.58A135.8,135.8,0,0,1,464.82,96q-10.21,0-14.47-5.92t-4.26-18.4q0-24.88,19.77-24.88,9.56,0,14.29,5.34T484.88,69l-.38,5.39H453.28q0,7.86,2.84,11.64T466,89.79Q473,89.79,480.34,89.22Zm-2.55-20.53q0-8.7-2.8-12.3t-9.08-3.59q-6.29,0-9.46,3.78t-3.26,12.11Z"/><path class="cls-1" d="M510.81,53.18q-10.32,0-10.32,7.19a5,5,0,0,0,2.37,4.68q2.36,1.38,10.78,2.84T525.57,72q3.49,2.66,3.5,9.94t-4.69,10.69Q519.7,96,510.71,96a86,86,0,0,1-13.81-1.33l-2.84-.47.38-6.15a121,121,0,0,0,16.27,1.61q5.49,0,8.37-1.75T522,82.08q0-4.11-2.46-5.58t-10.79-2.79q-8.33-1.33-11.82-3.88t-3.5-9.46q0-6.91,4.87-10.22a21.13,21.13,0,0,1,12.16-3.31,99.8,99.8,0,0,1,14.47,1.32l2.65.47-.19,6.06A122.86,122.86,0,0,0,510.81,53.18Z"/><path class="cls-1" d="M540,116.1V47.78h7v3.41a27.27,27.27,0,0,1,14.19-4.35q9,0,13.06,5.72t4.07,18.88q0,13.16-4.78,18.87T557.64,96A50.6,50.6,0,0,1,547,95v21.1ZM560.1,53.18a22,22,0,0,0-6.1.94A31.43,31.43,0,0,0,548.84,56L547,57V88.85a73.18,73.18,0,0,0,10.22,1q7.66,0,10.74-4.36t3.08-14.19q0-9.84-2.8-14A9.2,9.2,0,0,0,560.1,53.18Z"/><path class="cls-1" d="M623.21,62.07V86.29c.19,2.34,2,3.72,5.49,4.16L628.41,96q-7.47,0-11.26-3.79a41.49,41.49,0,0,1-17,3.79q-6.52,0-9.93-3.69t-3.41-10.6c0-4.6,1.17-8,3.5-10.17s6-3.52,11-4l14.85-1.42V62.07q0-4.83-2.08-6.91a7.71,7.71,0,0,0-5.68-2.08,136.16,136.16,0,0,0-15.7,1l-2.94.28-.28-5.39a95.18,95.18,0,0,1,18.45-2.08q8,0,11.69,3.69T623.21,62.07Zm-29.14,19.3q0,8.72,7.19,8.71a38.34,38.34,0,0,0,12.68-2.18l2.17-.76V71.53l-14,1.33q-4.26.38-6.15,2.46T594.07,81.37Z"/><path class="cls-1" d="M637.78,95.09V27.16h7.1V95.09Z"/><path class="cls-1" d="M695.4,27.16V95.09h-7V91.87A28.81,28.81,0,0,1,674,96a21,21,0,0,1-6.63-1,13.5,13.5,0,0,1-5.3-3.41Q657,86.58,657,72.81t4.59-19.87q4.59-6.11,15.19-6.1a59.45,59.45,0,0,1,11.64,1.23V27.16ZM670.8,89a12.32,12.32,0,0,0,4.4.66,23.59,23.59,0,0,0,6-.9,35.74,35.74,0,0,0,5.25-1.75l1.9-.85V54.12A61.07,61.07,0,0,0,677.14,53q-7.2,0-10,4.59t-2.84,14.23q0,11,3.31,14.77A8.3,8.3,0,0,0,670.8,89Z"/><path class="cls-1" d="M742.52,62.07V86.29c.19,2.34,2,3.72,5.48,4.16L747.72,96q-7.47,0-11.26-3.79a41.53,41.53,0,0,1-17,3.79q-6.52,0-9.93-3.69t-3.41-10.6c0-4.6,1.17-8,3.5-10.17s6-3.52,11-4l14.85-1.42V62.07q0-4.83-2.08-6.91a7.71,7.71,0,0,0-5.68-2.08A136.16,136.16,0,0,0,712,54l-2.94.28-.28-5.39a95.18,95.18,0,0,1,18.45-2.08q8,0,11.68,3.69T742.52,62.07Zm-29.14,19.3q0,8.72,7.19,8.71a38.28,38.28,0,0,0,12.67-2.18l2.18-.76V71.53l-14,1.33q-4.26.38-6.15,2.46C714,76.7,713.38,78.72,713.38,81.37Z"/><path class="cls-1" d="M792.85,27.16V95.09h-7V91.87A28.81,28.81,0,0,1,771.47,96a20.92,20.92,0,0,1-6.62-1,13.43,13.43,0,0,1-5.3-3.41q-5.12-5.1-5.11-18.87T759,52.94q4.58-6.11,15.18-6.1a59.45,59.45,0,0,1,11.64,1.23V27.16ZM768.25,89a12.36,12.36,0,0,0,4.4.66,23.66,23.66,0,0,0,6.06-.9A36.16,36.16,0,0,0,784,87.05l1.89-.85V54.12A61.07,61.07,0,0,0,774.59,53q-7.19,0-10,4.59t-2.84,14.23q0,11,3.31,14.77A8.37,8.37,0,0,0,768.25,89Z"/><path class="cls-1" d="M804.49,71.34q0-13,4.64-18.73t15.65-5.77q11,0,15.62,5.77T845,71.34q0,13-4.35,18.83T824.74,96q-11.55,0-15.9-5.87T804.49,71.34Zm7.28-.14q0,10.36,2.51,14.52t10.5,4.17q8,0,10.46-4.12t2.46-14.52q0-10.41-2.74-14.34T824.78,53q-7.42,0-10.21,3.92T811.77,71.2Z"/><path class="cls-1" d="M877.34,116.1V47.78h7v3.41a27.33,27.33,0,0,1,14.2-4.35q9,0,13.05,5.72t4.07,18.88q0,13.16-4.78,18.87T895,96a50.6,50.6,0,0,1-10.6-1v21.1ZM897.5,53.18a22,22,0,0,0-6.11.94A31.62,31.62,0,0,0,886.24,56l-1.8,1V88.85a73,73,0,0,0,10.22,1c5.11,0,8.68-1.45,10.74-4.36s3.07-7.63,3.07-14.19-.93-11.22-2.79-14A9.21,9.21,0,0,0,897.5,53.18Z"/><path class="cls-1" d="M925.12,71.34q0-13,4.64-18.73t15.66-5.77q11,0,15.61,5.77t4.59,18.73q0,13-4.35,18.83T945.37,96q-11.55,0-15.9-5.87T925.12,71.34Zm7.29-.14q0,10.36,2.51,14.52t10.5,4.17q8,0,10.45-4.12t2.46-14.52q0-10.41-2.74-14.34T945.42,53Q938,53,935.2,56.91T932.41,71.2Z"/><path class="cls-1" d="M977.16,95.09V47.78h7v6.44a46,46,0,0,1,17.32-7.48v7.19a51.78,51.78,0,0,0-8.28,2.37,55,55,0,0,0-6.58,2.84l-2.36,1.23V95.09Z"/><path class="cls-1" d="M160.65,313.22q-19.67-4.14-31-19.43-11.3-15.54-11.3-38.86t11.42-38.86q11.41-15.42,31.2-19.42l1.22-.25a65.5,65.5,0,0,1,23.8,0l1.09.25a41.3,41.3,0,0,1,18.09,8.62v-9.84h24.65V318.19q0,27.21-16.15,43.35t-43.22,16.28q-18.59,0-32.3-7.65a51.31,51.31,0,0,1-20.77-22.1l22.1-10.93a26.16,26.16,0,0,0,14,13,44,44,0,0,0,17,3q34.72,0,34.72-35V304.72a41.19,41.19,0,0,1-17.72,8.5l-1.34.24a63.74,63.74,0,0,1-12,1.09A65.58,65.58,0,0,1,162,313.46ZM174.13,220q-17.49,0-25.26,11.54-6,8.73-6,23.43t6,23.56Q156.64,290,174.13,290t25.13-11.53q6-8.62,6-23.32v-.48q0-14.58-6-23.32Q191.49,220,174.13,220Z"/><path class="cls-1" d="M305,195.31q25.38,0,40.56,16.27t15.17,43.35q0,27.19-15.17,43.35T305,314.55q-25.38,0-40.56-16.27t-15.18-43.35q0-27.19,15.18-43.35T305,195.31Zm0,94.59q17.49,0,25.26-11.41,5.94-8.87,5.95-23.56t-5.95-23.56Q322.51,220,305,220t-25.26,11.41q-5.82,8.87-5.83,23.56t5.83,23.56Q287.54,289.91,305,289.9Z"/><path class="cls-1" d="M408.12,309.33a46.44,46.44,0,0,1-20.52-20.64q-7.41-14.32-7.41-33.76V195.31h24.65v59.62q0,14.82,5,23.56,6.56,11.42,21.37,11.41,14.58,0,21.13-11,5.1-8.62,5.22-23.07V195.31h24.65V314.43H457.54v-7.16a19.31,19.31,0,0,1-3.28,2.06,53.59,53.59,0,0,1-46.14,0Z"/><path class="cls-1" d="M532.83,314.55H508.18v-119h24.65v9.84a42.16,42.16,0,0,1,17.73-8.62l1.21-.25a65.66,65.66,0,0,1,12.14-1.09v24.65q-17.35,0-25.13,11.42-6,8.73-5.95,23.43Z"/><path class="cls-1" d="M719.1,200.53a46.37,46.37,0,0,1,20.52,20.76Q747,235.51,747,254.93v59.62H722.38V254.93q0-14.69-5-23.43Q710.85,220,696,220q-14.58,0-21.13,11.17-5.1,8.51-5.22,23v60.47H645V195.43h24.65v7.17c1.05-.73,2.14-1.42,3.28-2.07a53.59,53.59,0,0,1,46.14,0Z"/><path class="cls-1" d="M877.93,265.62H792.08q4.73,24.28,31.32,24.28a42.29,42.29,0,0,0,19-4,25.14,25.14,0,0,0,11.53-11.29L876,285.41a47.81,47.81,0,0,1-20.64,21.37q-14,7.77-31.94,7.77-26,0-41.4-16.27t-15.54-43.35q0-27.19,15.17-43.35t40.56-16.27q22.21,0,36.79,12.63t18,34.36a67.05,67.05,0,0,1,1,11.54v11.78Zm-26-23.32Q846.72,220,822.19,220T792.44,242.3Z"/><path class="cls-1" d="M905.49,222,888.25,220V195.31l17.24,2.06V157.55h24.65v39.82l17.24-2.06V220L930.14,222v55.25q0,7.53,3.28,10.57,2.43,2.06,7.41,2.06h6.43v24.65h-6.43q-15.92,0-25.63-10.32t-9.71-27V222Z"/><path class="cls-1" d="M570.79,278.2l19.91-19.91-19.91-19.91L588.15,221l37.28,37.28-37.28,37.4Z"/></svg>