<svg id="Capa_1" data-name="Capa 1" xmlns="http://www.w3.org/2000/svg" viewBox="0 0 870 375"><defs><style>.cls-1{fill:#eb2376;}.cls-2{fill:#fff;}</style></defs><path class="cls-1" d="M75.43,115.78h63.25V97.7H84.47v-9h-9V52.52h9v-9h90.36V61.56H111.57V79.63h54.22v9h9v36.14h-9v9H75.43Z"/><path class="cls-1" d="M292.29,133.85H211v-9h-9V52.52h9v-9h81.32v9h9V79.63H265.18V61.56h-27.1v54.22h27.1V97.7h36.15v27.11h-9Z"/><path class="cls-1" d="M364.58,133.85H328.43V43.49h36.15V79.63h27.11V43.49h36.14v90.36H391.69V97.7H364.58Z"/><path class="cls-1" d="M545.3,133.85H464v-9h-9V52.52h9v-9H545.3v9h9v72.29h-9ZM518.19,79.63V61.56H491.08v54.22h27.11V79.63Z"/><path class="cls-1" d="M671.8,133.85H590.48v-9h-9V52.52h9v-9H671.8v9h9v72.29h-9ZM644.69,79.63V61.56H617.58v54.22h27.11V79.63Z"/><path class="cls-1" d="M707.94,43.49h36.14v72.29h63.26v18.07h-99.4Z"/><path class="cls-1" d="M125.13,269.39H43.81v-9h-9V188.06h9v-9h81.32v9h9v72.29h-9ZM98,215.17V197.1H70.91v54.22H98V215.17Z"/><path class="cls-1" d="M197.41,269.39H161.27V188.06h9v-9h90.36V197.1H197.41v18.07h27.11v18.07H197.41Z"/><path class="cls-1" d="M459.46,269.39H378.13v-9h-9V188.06h9v-9h81.33v9h9v27.11H432.35V197.1H405.24v54.22h27.11V233.24h36.14v27.11h-9Z"/><path class="cls-1" d="M586,269.39H504.64v-9h-9V188.06h9v-9H586v9h9v72.29h-9Zm-27.11-54.22V197.1H531.74v54.22h27.11V215.17Z"/><path class="cls-1" d="M703.42,269.39H622.1V179h81.32v9h9v9h9v54.22h-9v9h-9Zm-27.1-72.29H658.24v54.22h18.08v-9h9V206.14h-9Z"/><path class="cls-1" d="M757.64,260.35h-9V188.06h9v-9H848V197.1H784.75v18.07h27.1v18.07h-27.1v18.08H848v18.07H757.64Z"/><path class="cls-2" d="M64.14,127.07h63.25V109H73.17v-9h-9V63.82h9v-9h90.36V72.85H100.28V90.93H154.5v9h9v36.15h-9v9H64.14Z"/><path class="cls-2" d="M281,145.14H199.67v-9h-9V63.82h9v-9H281v9h9V90.93H253.89V72.85H226.78v54.22h27.11V109H290v27.11h-9Z"/><path class="cls-2" d="M353.28,145.14H317.14V54.78h36.14V90.93h27.11V54.78h36.15v90.36H380.39V109H353.28Z"/><path class="cls-2" d="M534,145.14H452.68v-9h-9V63.82h9v-9H534v9h9v72.29h-9ZM506.89,90.93V72.85H479.78v54.22h27.11V90.93Z"/><path class="cls-2" d="M660.5,145.14H579.18v-9h-9V63.82h9v-9H660.5v9h9v72.29h-9ZM633.4,90.93V72.85H606.29v54.22H633.4V90.93Z"/><path class="cls-2" d="M696.65,54.78h36.14v72.29H796v18.07H696.65Z"/><path class="cls-2" d="M113.83,280.68H32.51v-9h-9V199.36h9v-9h81.32v9h9v72.29h-9Zm-27.1-54.21V208.39H59.62v54.22H86.73V226.47Z"/><path class="cls-2" d="M186.12,280.68H150V199.36h9v-9h90.36v18.07H186.12v18.08h27.11v18.07H186.12Z"/><path class="cls-2" d="M448.16,280.68H366.84v-9h-9V199.36h9v-9h81.32v9h9v27.11H421.05V208.39H393.94v54.22h27.11V244.54H457.2v27.11h-9Z"/><path class="cls-2" d="M574.66,280.68H493.34v-9h-9V199.36h9v-9h81.32v9h9v72.29h-9Zm-27.11-54.21V208.39h-27.1v54.22h27.1V226.47Z"/><path class="cls-2" d="M692.13,280.68H610.81V190.32h81.32v9h9v9h9v54.22h-9v9h-9ZM665,208.39H647v54.22H665v-9h9V217.43h-9Z"/><path class="cls-2" d="M746.35,271.65h-9V199.36h9v-9h90.36v18.07H773.45v18.08h27.11v18.07H773.45v18.07h63.26v18.07H746.35Z"/><path class="cls-2" d="M39.86,307.53H50.38l-.69,3.56h-6l-7.44,38.32h6L41.58,353H31Z"/><path class="cls-2" d="M82.43,319.45,85.29,305h4.58l-7.54,38.72H77.75l.67-3.51a11.22,11.22,0,0,1-3.67,3.16,9.71,9.71,0,0,1-4.54,1.07,7.89,7.89,0,0,1-6.31-2.61c-1.5-1.75-2.25-4.17-2.25-7.29a26.49,26.49,0,0,1,1-7.16,22.77,22.77,0,0,1,2.71-6.28,13.28,13.28,0,0,1,4.39-4.43,10.85,10.85,0,0,1,5.61-1.49,8.11,8.11,0,0,1,4.23,1.08A7.33,7.33,0,0,1,82.43,319.45Zm-6.67-.35a6.94,6.94,0,0,0-3.86,1.08,8.48,8.48,0,0,0-2.81,3.25,20.53,20.53,0,0,0-1.89,5.09,24.67,24.67,0,0,0-.67,5.71A7.52,7.52,0,0,0,67.8,339a4.51,4.51,0,0,0,3.78,1.6,6.87,6.87,0,0,0,3.82-1.12,9.12,9.12,0,0,0,2.9-3.31,19.52,19.52,0,0,0,1.91-5,23.92,23.92,0,0,0,.7-5.71,7.14,7.14,0,0,0-1.36-4.65A4.62,4.62,0,0,0,75.76,319.1Z"/><path class="cls-2" d="M118.38,342.34a29.84,29.84,0,0,1-5.1,1.6,23.81,23.81,0,0,1-5,.54c-3.7,0-6.52-.93-8.44-2.77s-2.89-4.55-2.89-8.1A20.28,20.28,0,0,1,98.4,326a19.4,19.4,0,0,1,4.13-6.44,14.48,14.48,0,0,1,4.56-3.26,12.6,12.6,0,0,1,5.22-1.12,9.86,9.86,0,0,1,7.4,2.85,10.42,10.42,0,0,1,2.77,7.6q0,.84-.12,2.1c-.08.84-.23,1.9-.42,3.2H101.86c-.1.53-.18,1-.23,1.44a9.93,9.93,0,0,0-.07,1.15,7,7,0,0,0,1.91,5.27,7.83,7.83,0,0,0,5.58,1.82,18.47,18.47,0,0,0,4.79-.71,31.23,31.23,0,0,0,5.43-2.1Zm-.58-15a10.34,10.34,0,0,0,.2-1.11,6,6,0,0,0,0-.83,6.43,6.43,0,0,0-1.61-4.65,6,6,0,0,0-4.51-1.67,8.22,8.22,0,0,0-5.58,2.24,12.39,12.39,0,0,0-3.62,6Z"/><path class="cls-2" d="M157,316.86l-.87,4.48a14.88,14.88,0,0,0-3.72-1.71,13.76,13.76,0,0,0-3.87-.58,9.36,9.36,0,0,0-5.29,1.27,4.06,4.06,0,0,0-1.88,3.56c0,1.62,1.84,2.9,5.5,3.83l.55.15,1.79.45a9.06,9.06,0,0,1,4.36,2.3,5.35,5.35,0,0,1,1.44,3.82,8.8,8.8,0,0,1-3.58,7.28q-3.58,2.76-9.51,2.77a21.58,21.58,0,0,1-4.2-.44,34.16,34.16,0,0,1-4.66-1.3L134,338a22.54,22.54,0,0,0,4.54,2,14.85,14.85,0,0,0,4.27.66,9.17,9.17,0,0,0,5.4-1.48,4.48,4.48,0,0,0,2.09-3.77c0-1.65-1.62-2.9-4.88-3.76-.29-.07-.53-.12-.69-.17l-1.67-.45a9.58,9.58,0,0,1-4.71-2.42,5.76,5.76,0,0,1-1.51-4.15,8,8,0,0,1,3.28-6.73c2.19-1.67,5.15-2.5,8.86-2.5a20.66,20.66,0,0,1,4.21.41A17.66,17.66,0,0,1,157,316.86Z"/><path class="cls-2" d="M192.47,327.86l-3.11,15.9h-4.58l.79-4.13a12.35,12.35,0,0,1-4.23,3.59,11.09,11.09,0,0,1-5.17,1.26,8.63,8.63,0,0,1-6.08-2.08,7.09,7.09,0,0,1-2.28-5.51,9.31,9.31,0,0,1,3.84-7.8q3.85-2.93,10.42-2.92h6.12l.3-1.52c0-.15,0-.31.07-.47a6.29,6.29,0,0,0,0-.7,3.79,3.79,0,0,0-1.57-3.25,7.62,7.62,0,0,0-4.48-1.13,18.79,18.79,0,0,0-4.62.63,31.38,31.38,0,0,0-5.23,1.91l.87-4.48a36.34,36.34,0,0,1,5.1-1.46,23.73,23.73,0,0,1,4.63-.48,11.34,11.34,0,0,1,7.2,2,6.79,6.79,0,0,1,2.57,5.65c0,.53-.05,1.22-.14,2.09S192.67,326.81,192.47,327.86Zm-9.23,1.89a36.3,36.3,0,0,0-4.41.19,9.49,9.49,0,0,0-2.51.63,5.73,5.73,0,0,0-2.71,2.2,5.92,5.92,0,0,0-1,3.35,4.35,4.35,0,0,0,1.28,3.3,4.79,4.79,0,0,0,3.47,1.23A8.77,8.77,0,0,0,183.7,338a13.78,13.78,0,0,0,3.62-7.24l.2-1Z"/><path class="cls-2" d="M231.25,321.64a7.14,7.14,0,0,0-2.6-1.64,9.53,9.53,0,0,0-3.37-.55,9.63,9.63,0,0,0-7,2.85,14.36,14.36,0,0,0-3.86,7.8l-2.66,13.66h-4.58l5.4-27.87h4.58l-1,5.45a11.93,11.93,0,0,1,4.32-4.55,11.54,11.54,0,0,1,6-1.57,10.35,10.35,0,0,1,3.2.46,6.82,6.82,0,0,1,2.42,1.33Z"/><path class="cls-2" d="M267,321.64a7.23,7.23,0,0,0-2.6-1.64,10.17,10.17,0,0,0-10.36,2.3,14.29,14.29,0,0,0-3.86,7.8l-2.66,13.66H243l5.4-27.87H253l-1,5.45a11.79,11.79,0,0,1,4.32-4.55,11.52,11.52,0,0,1,6-1.57,10.28,10.28,0,0,1,3.19.46A6.78,6.78,0,0,1,267.9,317Z"/><path class="cls-2" d="M291.09,315.22q4.88,0,7.42,2.66c1.7,1.78,2.55,4.37,2.55,7.79a23.66,23.66,0,0,1-1,6.83,22.14,22.14,0,0,1-2.86,6.11,13,13,0,0,1-4.78,4.4,13.75,13.75,0,0,1-6.47,1.47q-4.65,0-7.16-2.73c-1.68-1.81-2.51-4.4-2.51-7.77a23,23,0,0,1,1-6.72,23.4,23.4,0,0,1,2.88-6.17,13.51,13.51,0,0,1,4.74-4.38A12.9,12.9,0,0,1,291.09,315.22Zm-.43,3.88q-4.08,0-6.8,4.25a19.73,19.73,0,0,0-2.73,10.83,7.15,7.15,0,0,0,1.4,4.81,5.22,5.22,0,0,0,4.18,1.61c2.72,0,5-1.42,6.8-4.26a19.67,19.67,0,0,0,2.73-10.82,7.18,7.18,0,0,0-1.4-4.82A5.23,5.23,0,0,0,290.66,319.1Z"/><path class="cls-2" d="M324.05,333.61c-.12.58-.2,1.09-.26,1.54a8.72,8.72,0,0,0-.09,1.12,3.28,3.28,0,0,0,1.11,2.71,5.28,5.28,0,0,0,3.37.9h5.25l-.77,3.88h-5.15q-4.31,0-6.41-1.58a5.68,5.68,0,0,1-2.1-4.84,14.33,14.33,0,0,1,.12-1.69c.09-.67.2-1.38.35-2.14l5.25-25.16h-7.86l.72-3.58H330Z"/><path class="cls-2" d="M359.82,333.61c-.11.58-.2,1.09-.26,1.54a10.62,10.62,0,0,0-.08,1.12,3.3,3.3,0,0,0,1.1,2.71,5.31,5.31,0,0,0,3.38.9h5.25l-.78,3.88h-5.15q-4.3,0-6.4-1.58a5.66,5.66,0,0,1-2.11-4.84,12.66,12.66,0,0,1,.13-1.69c.08-.67.2-1.38.35-2.14l5.25-25.16h-7.87l.73-3.58H365.8Z"/><path class="cls-2" d="M407.12,327.86,404,343.76h-4.58l.8-4.13a12.54,12.54,0,0,1-4.23,3.59,11.13,11.13,0,0,1-5.18,1.26,8.66,8.66,0,0,1-6.08-2.08,7.09,7.09,0,0,1-2.28-5.51,9.3,9.3,0,0,1,3.85-7.8q3.84-2.93,10.41-2.92h6.12l.3-1.52a3.54,3.54,0,0,0,.07-.47,6.29,6.29,0,0,0,0-.7,3.76,3.76,0,0,0-1.57-3.25,7.6,7.6,0,0,0-4.48-1.13,18.78,18.78,0,0,0-4.61.63,31.47,31.47,0,0,0-5.24,1.91l.87-4.48a36.34,36.34,0,0,1,5.1-1.46,23.73,23.73,0,0,1,4.63-.48c3.08,0,5.49.68,7.2,2a6.8,6.8,0,0,1,2.58,5.65,19.13,19.13,0,0,1-.15,2.09C407.47,325.86,407.32,326.81,407.12,327.86Zm-9.23,1.89a36.22,36.22,0,0,0-4.4.19,9.57,9.57,0,0,0-2.52.63,5.73,5.73,0,0,0-2.71,2.2,5.92,5.92,0,0,0-1,3.35,4.39,4.39,0,0,0,1.28,3.3,4.81,4.81,0,0,0,3.47,1.23,8.73,8.73,0,0,0,6.36-2.64,13.78,13.78,0,0,0,3.62-7.24l.2-1Z"/><path class="cls-2" d="M445.91,321.64a7.31,7.31,0,0,0-2.6-1.64,9.57,9.57,0,0,0-3.37-.55,9.67,9.67,0,0,0-7,2.85,14.35,14.35,0,0,0-3.85,7.8l-2.66,13.66h-4.58l5.4-27.87h4.57l-1,5.45a11.79,11.79,0,0,1,4.32-4.55,11.52,11.52,0,0,1,6-1.57,10.28,10.28,0,0,1,3.19.46,6.78,6.78,0,0,1,2.43,1.33Z"/><path class="cls-2" d="M491.56,333.16l3.31-17.27h4.6l-3.36,17.27c-.12.61-.21,1.2-.27,1.76a12,12,0,0,0-.1,1.45,3.88,3.88,0,0,0,1.15,3,4.67,4.67,0,0,0,3.28,1.06,7.13,7.13,0,0,0,5.35-2.3,12.92,12.92,0,0,0,3-6.51l3.06-15.75h4.6l-5.42,27.87h-4.58l.82-4.18a12.67,12.67,0,0,1-4,3.64,9.89,9.89,0,0,1-4.83,1.21A7.1,7.1,0,0,1,493,342.6a6.58,6.58,0,0,1-1.89-5c0-.65,0-1.36.11-2.13S491.41,334,491.56,333.16Z"/><path class="cls-2" d="M550.52,326.49l-3.36,17.27h-4.58l3.36-17.3a3,3,0,0,0,.08-.34,14.11,14.11,0,0,0,.37-2.74,4,4,0,0,0-1.15-3.1,4.72,4.72,0,0,0-3.33-1.08,7.17,7.17,0,0,0-5.37,2.31,12.74,12.74,0,0,0-3,6.5l-3.06,15.75h-4.58l5.45-27.87h4.58l-.79,4.18a13.47,13.47,0,0,1,4-3.63,9.22,9.22,0,0,1,4.61-1.22,7.56,7.56,0,0,1,5.38,1.8,6.57,6.57,0,0,1,1.91,5,17.56,17.56,0,0,1-.13,2Q550.78,325.2,550.52,326.49Z"/><path class="cls-2" d="M626.3,305l-.77,3.81h-5.17a5.31,5.31,0,0,0-3.56,1,6.12,6.12,0,0,0-1.69,3.55l-.53,2.46h9.59l-.65,3.56h-9.58l-4.75,24.31h-4.58l4.72-24.31H601.9l.72-3.56H610l.4-1.94q.95-4.8,3.34-6.86c1.6-1.36,4-2,7.06-2Z"/><path class="cls-2" d="M634.66,333.16,638,315.89h4.6l-3.36,17.27c-.11.61-.2,1.2-.27,1.76a12,12,0,0,0-.1,1.45,3.88,3.88,0,0,0,1.16,3,4.65,4.65,0,0,0,3.27,1.06,7.13,7.13,0,0,0,5.35-2.3,12.83,12.83,0,0,0,3-6.51l3.06-15.75h4.6l-5.42,27.87h-4.58l.82-4.18a12.57,12.57,0,0,1-4,3.64,9.87,9.87,0,0,1-4.83,1.21,7.1,7.1,0,0,1-5.15-1.83,6.58,6.58,0,0,1-1.89-5c0-.65,0-1.36.11-2.13S634.51,334,634.66,333.16Z"/><path class="cls-2" d="M686,308l-1.52,7.91h10.37l-.69,3.56h-10.4l-3,15.13c-.1.49-.18.95-.23,1.38a9.92,9.92,0,0,0-.07,1.18,2.58,2.58,0,0,0,1,2.3,6.62,6.62,0,0,0,3.51.66h5.15l-.72,3.66h-5.55q-4.15,0-6.11-1.38a4.93,4.93,0,0,1-2-4.32,14.34,14.34,0,0,1,.09-1.47q.11-.84.33-2l3-15.13h-7.44l.7-3.56h7.44l1.54-7.91Z"/><path class="cls-2" d="M706.21,333.16l3.31-17.27h4.6l-3.36,17.27c-.11.61-.2,1.2-.27,1.76a12,12,0,0,0-.1,1.45,3.88,3.88,0,0,0,1.16,3,4.65,4.65,0,0,0,3.27,1.06,7.11,7.11,0,0,0,5.35-2.3,12.83,12.83,0,0,0,3-6.51l3.06-15.75h4.6l-5.42,27.87h-4.58l.82-4.18a12.57,12.57,0,0,1-4,3.64,9.84,9.84,0,0,1-4.83,1.21,7.1,7.1,0,0,1-5.15-1.83,6.58,6.58,0,0,1-1.89-5c0-.65,0-1.36.11-2.13S706.06,334,706.21,333.16Z"/><path class="cls-2" d="M767.89,321.64a7.23,7.23,0,0,0-2.6-1.64,10.17,10.17,0,0,0-10.36,2.3,14.29,14.29,0,0,0-3.86,7.8l-2.66,13.66h-4.58l5.4-27.87h4.58l-1,5.45a11.79,11.79,0,0,1,4.32-4.55,11.52,11.52,0,0,1,6-1.57,10.28,10.28,0,0,1,3.19.46,6.78,6.78,0,0,1,2.43,1.33Z"/><path class="cls-2" d="M792,315.22q4.88,0,7.42,2.66c1.7,1.78,2.55,4.37,2.55,7.79a23.66,23.66,0,0,1-1,6.83,22.14,22.14,0,0,1-2.86,6.11,13,13,0,0,1-4.78,4.4,13.75,13.75,0,0,1-6.47,1.47q-4.65,0-7.16-2.73c-1.68-1.81-2.51-4.4-2.51-7.77a23,23,0,0,1,1-6.72,23.4,23.4,0,0,1,2.88-6.17,13.51,13.51,0,0,1,4.74-4.38A12.9,12.9,0,0,1,792,315.22Zm-.43,3.88q-4.08,0-6.8,4.25A19.73,19.73,0,0,0,782,334.18a7.15,7.15,0,0,0,1.4,4.81,5.22,5.22,0,0,0,4.18,1.61c2.72,0,5-1.42,6.8-4.26a19.67,19.67,0,0,0,2.73-10.82,7.18,7.18,0,0,0-1.4-4.82A5.23,5.23,0,0,0,791.52,319.1Z"/><path class="cls-2" d="M834.31,307.53,825.43,353H814.88l.72-3.55h6L829,311.09h-6l.72-3.56Z"/></svg>